<svg width="65" height="65" viewBox="0 0 65 65" fill="none" xmlns="http://www.w3.org/2000/svg">
<path fill-rule="evenodd" clip-rule="evenodd" d="M29.5996 0.435868C23.4153 1.04135 17.6995 3.31967 12.688 7.1768C10.2475 9.05509 7.0782 12.5851 5.24669 15.4646C4.4557 16.7083 2.91596 19.8596 2.36437 21.3636C1.74765 23.0453 1.09033 25.6152 0.766871 27.6093C0.371004 30.05 0.371004 34.684 0.766871 37.1247C1.3266 40.5751 2.21204 43.3643 3.72761 46.4524C5.38349 49.8259 7.10526 52.2173 9.86243 54.973C12.6197 57.7286 15.0125 59.4494 18.388 61.1044C21.4778 62.6191 24.2686 63.504 27.7209 64.0634C30.163 64.459 34.7997 64.459 37.2418 64.0634C40.6941 63.504 43.485 62.6191 46.5748 61.1044C49.9503 59.4494 52.343 57.7286 55.1003 54.973C57.8575 52.2173 59.5793 49.8259 61.2351 46.4524C62.3349 44.2115 62.8881 42.7428 63.4807 40.4908C64.2698 37.4917 64.47 35.8477 64.47 32.367C64.47 28.8864 64.2698 27.2423 63.4807 24.2432C62.8881 21.9912 62.3349 20.5226 61.2351 18.2817C59.5793 14.9081 57.8575 12.5167 55.1003 9.76099C52.343 7.00539 49.9503 5.2846 46.5748 3.62967C43.488 2.11634 40.6419 1.2135 37.3044 0.688778C35.463 0.399309 31.3513 0.26434 29.5996 0.435868ZM33.2052 21.4786C33.6379 21.5487 34.2862 21.7457 34.6459 21.9161C35.0731 22.1185 37.8212 24.3559 42.566 28.3644C46.5622 31.7406 49.9907 34.6843 50.1849 34.906C50.379 35.1279 50.7172 35.6755 50.9366 36.1231C51.3075 36.8805 51.3352 37.0281 51.3352 38.2516C51.3352 39.4101 51.2963 39.6479 51.0077 40.2548C50.3375 41.6637 49.3335 42.5554 47.9083 43.0073C46.3885 43.489 44.6561 43.2126 43.4312 42.2927C43.085 42.0326 40.5062 39.8761 37.7008 37.5003C34.8954 35.1246 32.5593 33.1674 32.5094 33.151C32.4596 33.1346 30.1356 35.07 27.3451 37.4519C22.0172 41.9996 21.3311 42.5509 20.5177 42.9375C19.7879 43.2843 17.9137 43.3587 17.0465 43.0753C15.659 42.6216 14.4927 41.5401 13.8738 40.1331C13.6797 39.6919 13.6278 39.2941 13.6287 38.2551C13.6298 37.0153 13.6544 36.888 14.0431 36.1121C14.2934 35.6123 14.7374 35.0153 15.1694 34.5973C15.7097 34.0745 25.1638 25.9897 29.1578 22.6349C29.8336 22.0672 30.7756 21.6269 31.6044 21.4911C31.9834 21.4292 32.3216 21.3723 32.3561 21.3647C32.3905 21.3572 32.7726 21.4085 33.2052 21.4786Z" fill="#C70101"/>
</svg>
